<svg xmlns="http://www.w3.org/2000/svg" xmlns:xlink="http://www.w3.org/1999/xlink" viewBox="0 0 150 150" width="160" height="160"><defs><linearGradient id="a"><stop offset="0" stop-color="#0082c9"/><stop offset="1" stop-color="#1cafff"/></linearGradient><linearGradient xlink:href="#a" id="b" gradientUnits="userSpaceOnUse" x1="18.23" y1="150" x2="150" y2="0"/></defs><path fill="url(#b)" fill-rule="evenodd" d="M0 0h150v150H0z"/><path d="M75.09 49.08a26 26 0 00-24.92 18.84 16.92 16.92 0 00-15.26-9.78c-9.25 0-16.86 7.6-16.86 16.86 0 9.25 7.6 16.86 16.86 16.86 6.73 0 12.57-4.03 15.26-9.79a26 26 0 0024.92 18.85 26.02 26.02 0 0024.85-18.6 16.92 16.92 0 0015.15 9.54c9.25 0 16.86-7.61 16.86-16.86s-7.61-16.86-16.86-16.86c-6.64 0-12.4 3.92-15.15 9.54a26.02 26.02 0 00-24.85-18.6zm0 9.9c8.9 0 16.03 7.1 16.03 16.02 0 8.91-7.12 16.03-16.03 16.03A15.95 15.95 0 0159.06 75c0-8.91 7.12-16.03 16.03-16.03zM34.9 68.03c3.9 0 6.97 3.05 6.97 6.96a6.9 6.9 0 01-6.97 6.96A6.89 6.89 0 0127.95 75c0-3.9 3.06-6.96 6.96-6.96zm80.18 0c3.9 0 6.96 3.05 6.96 6.96a6.9 6.9 0 01-6.96 6.96 6.89 6.89 0 01-6.97-6.96c0-3.9 3.06-6.96 6.97-6.96z" style="line-height:normal;text-indent:0;text-align:start;text-decoration-line:none;text-decoration-style:solid;text-decoration-color:#000;text-transform:none;white-space:normal;isolation:auto;mix-blend-mode:normal;solid-color:#000;solid-opacity:1" color="#000" font-weight="400" font-family="sans-serif" overflow="visible" fill="#fff"/></svg>