<svg height="1024" width="768" xmlns="http://www.w3.org/2000/svg"><path fill="#0082c9" d="M128 64C57.34 64 0 121.34 0 192c0 47.22 25.9 88.06 64 110.28v419.47C25.9 743.94 0 784.75 0 832c0 70.63 57.34 128 128 128s128-57.38 128-128c0-47.25-25.84-88.06-64-110.25V302.28c38.16-22.22 64-63.06 64-110.28 0-70.66-57.34-128-128-128zm0 832a64 64 0 1164-64c0 35.38-28.6 64-64 64zm0-640c-35.31 0-64-28.6-64-64s28.69-64 64-64c35.4 0 64 28.6 64 64s-28.6 64-64 64zm576 465.75V320c0-192.5-192-192-192-192h-64V0L256 192l192 192V256h64c56.44 0 64 64 64 64v401.75c-38.13 22.19-64 62.94-64 110.25 0 70.63 57.38 128 128 128s128-57.38 128-128c0-47.25-25.88-88.06-64-110.25zM640 896a64 64 0 110-128 64 64 0 010 128z"/></svg>