<svg width="275" height="306.5" preserveAspectRatio="xMidYMid" xmlns="http://www.w3.org/2000/svg"><path d="M17.9 82.2l121.7-71 121.7 71v141.6l-121.7 70.9-121.7-70.9z" fill="#c00"/><path d="M258 83.8l-.4 139.2-118.1 68.5-.6-136.9zM158.5 166l.3 91.5 39.3-22.9-.1-69 19.8-11.6V223l19.8-11.6V119z" fill="#c00"/><path d="M147.3 12.3c-5.4-3-14.2-3-19.7 0l-107.8 62c-5.5 3-9.8 10.8-9.8 17v124c0 6.2 4.4 13.9 9.8 17l107.8 62c5.5 3 14.3 3 19.7 0l107.9-62c5.5-3.1 9.8-10.9 9.8-17v-124c0-6.3-4.5-14-9.8-17zM243 77.2c5.5 3 5.5 8.1 0 11.2l-94.4 54.3c-5.5 3-14.2 3-19.7 0l-95.8-55c-5.5-3.1-5.5-8.3 0-11.3L127.5 22c5.5-3 14.3-3 19.7 0zm-224.6 23c0-6.2 4.5-8.7 9.8-5.6l96.6 55.5c5.5 3 9.8 10.8 9.8 17v110c0 6.3-4.5 8.8-9.8 5.8l-96.6-55.6c-5.5-3-9.8-10.8-9.8-17v-110zm134.6 181c-5.4 3-9.8.5-9.8-5.7V167c0-6.2 4.5-13.8 9.8-17l93.8-53.7c5.4-3.1 9.8-.6 9.8 5.7v108.4c0 6.2-4.5 13.9-9.8 17z" fill="#910505"/></svg>