<svg fill="none" width="110" height="116" xmlns="http://www.w3.org/2000/svg"><path d="M13.5 35.7l37.3-24.4a7.7 7.7 0 018.4 0l37.3 24.4a7.7 7.7 0 013.5 6.4V74c0 2.5-1.3 5-3.5 6.4l-37.3 24.4a7.7 7.7 0 01-8.4 0L13.5 80.3a7.7 7.7 0 01-3.5-6.4V42c0-2.5 1.3-5 3.5-6.4z" fill="#0082c9"/><path d="M58 43v-3h-5a1 1 0 01-1-1v-7a1 1 0 011-1h7a1 1 0 011 1v11h15a3 3 0 013 3v12h2a1 1 0 011 1v10a1 1 0 01-1 1h-2v6a3 3 0 01-3 3H34a3 3 0 01-3-3v-6h-2a1 1 0 01-1-1V59a1 1 0 011-1h2V46a3 3 0 013-3z" fill="#fff"/><path d="M63.1 66.6c.5.5 1.3.5 1.7 0l6.3-6.2c.5-.5.5-1.3 0-1.7l-1.3-1.4a1.2 1.2 0 00-1.7 0L64 61.6l-1.6-1.6a1.2 1.2 0 00-1.7 0l-1.4 1.3a1.2 1.2 0 000 1.6zm-20 0c.5.5 1.3.5 1.7 0l6.4-6.2c.4-.5.4-1.3 0-1.7l-1.4-1.4a1.2 1.2 0 00-1.6 0L44 61.6l-1.6-1.6a1.2 1.2 0 00-1.7 0l-1.4 1.3a1.2 1.2 0 000 1.6z" fill="#0082c9"/></svg>