<svg fill="none" width="110" height="116" xmlns="http://www.w3.org/2000/svg"><path d="M13.46 35.73L50.8 11.26a7.67 7.67 0 018.42 0l37.33 24.47a7.67 7.67 0 013.46 6.41v31.72c0 2.58-1.3 5-3.46 6.41L59.2 104.74a7.67 7.67 0 01-8.42 0L13.46 80.27A7.67 7.67 0 0110 73.86V42.14c0-2.58 1.3-5 3.46-6.41z" fill="#0366d6"/><path d="M58 43v-3h-5a1 1 0 01-1-1v-7a1 1 0 011-1h7a1 1 0 011 1v11h15a3 3 0 013 3v12h2a1 1 0 011 1v10a1 1 0 01-1 1h-2v6a3 3 0 01-3 3H34a3 3 0 01-3-3v-6h-2a1 1 0 01-1-1V59a1 1 0 011-1h2V46a3 3 0 013-3z" fill="#fff"/><path d="M63.14 66.64c.48.48 1.24.48 1.71 0l6.3-6.29c.47-.47.47-1.23 0-1.7l-1.3-1.3a1.21 1.21 0 00-1.7 0L64 61.5l-1.65-1.65a1.21 1.21 0 00-1.7 0l-1.3 1.3a1.21 1.21 0 000 1.7zM43.14 66.64c.48.48 1.24.48 1.71 0l6.3-6.29c.47-.47.47-1.23 0-1.7l-1.3-1.3a1.21 1.21 0 00-1.7 0L44 61.5l-1.65-1.65a1.21 1.21 0 00-1.7 0l-1.3 1.3a1.21 1.21 0 000 1.7z" fill="#0366d6"/></svg>