<?xml version="1.0" encoding="UTF-8" standalone="no"?>
<svg
   width="32"
   height="30.627619"
   viewBox="0 0 3.2768 3.1357153"
   preserveAspectRatio="xMidYMid"
   version="1.1"
   id="svg4"
   sodipodi:docname="lint-stylelint.svg"
   inkscape:version="1.1 (c4e8f9ed74, 2021-05-24)"
   xmlns:inkscape="http://www.inkscape.org/namespaces/inkscape"
   xmlns:sodipodi="http://sodipodi.sourceforge.net/DTD/sodipodi-0.dtd"
   xmlns="http://www.w3.org/2000/svg"
   xmlns:svg="http://www.w3.org/2000/svg">
  <defs
     id="defs8" />
  <sodipodi:namedview
     id="namedview6"
     pagecolor="#ffffff"
     bordercolor="#666666"
     borderopacity="1.0"
     inkscape:pageshadow="2"
     inkscape:pageopacity="0.0"
     inkscape:pagecheckerboard="0"
     showgrid="false"
     fit-margin-top="1"
     fit-margin-left="1"
     fit-margin-right="1"
     fit-margin-bottom="1"
     inkscape:zoom="11.674049"
     inkscape:cx="-5.9533756"
     inkscape:cy="-9.6795891"
     inkscape:window-width="2520"
     inkscape:window-height="1353"
     inkscape:window-x="20"
     inkscape:window-y="67"
     inkscape:window-maximized="1"
     inkscape:current-layer="svg4" />
  <path
     d="m 1.65928,3.0258823 c 0.336,-1.201308 0.326256,-1.206756 0.5691,-2.06330397 l 0.058368,0.033792 c 0.0318,0.0181922 0.057756,0.003216 0.057756,-0.033336 v -0.408576 c 0.064512,-0.225636 0.114888,-0.400128 0.129792,-0.452352 h 0.26304 l 0.437064,0.404736 -0.287076,0.248064 0.217116,0.23478 -1.430712,2.03619597 c -0.00691,0.01152 -0.016668,0.00891 -0.014436,0 z m 0.1563,-2.58938397 c 0.013056,0 0.023496,0.00714 0.023496,0.016128 v 0.20928 c 0,0.00876 -0.010524,0.015888 -0.023496,0.015888 H 1.4623 c -0.013056,0 -0.02358,-0.00714 -0.02358,-0.01596 v -0.209376 c 0,-0.008832 0.010524,-0.016128 0.023496,-0.016128 h 0.35328 l 8.4e-5,1.56e-4 z m 0.436224,-0.231792 -0.388764,0.224412 c 0.00445,0.006912 0.00723,0.01482 0.00723,0.023424 v 0.209436 c 0,0.010752 -0.00431,0.02058 -0.01122,0.028416 l 0.39267,0.226716 c 0.026736,0.015516 0.048696,0.002844 0.048696,-0.028032 v -0.656256 c -4e-7,-0.03096 -0.021816,-0.043548 -0.048612,-0.028116 z m -0.844344,0.457272 v -0.20952 c 0,-0.008592 0.00276,-0.0165 0.00723,-0.02334 l -0.38877,-0.224556 c -0.026724,-0.01536 -0.048696,-0.00276 -0.048696,0.028104 v 0.656256 c 0,0.030876 0.02196,0.043548 0.0487678,0.028032 l 0.3926042,-0.226716 c -0.00691,-0.007908 -0.011052,-0.017664 -0.011052,-0.028416 z M 1.603072,3.0258823 H 1.617508 C 1.281592,1.8245743 1.291264,1.8191263 1.04842,0.96257833 l -0.058368,0.033792 c -0.031716,0.018192 -0.057756,0.003216 -0.057756,-0.033336 v -0.408576 C 0.867784,0.32889433 0.817408,0.15433033 0.802504,0.10210633 H 0.53956 l -0.43716,0.404736 0.287004,0.248064 -0.217116,0.234852 z M 1.62772,1.1150263 a 0.10614,0.10614 0 1 0 0,-0.21227997 0.10614,0.10614 0 0 0 0,0.21227997 z m 0,0.630912 a 0.10614,0.10614 0 1 0 0,-0.21228 0.10614,0.10614 0 0 0 0,0.21228 z m 0,0.631056 a 0.10614,0.10614 0 1 0 0,-0.21228 0.10614,0.10614 0 0 0 0,0.21228 z"
     id="path2"
     style="stroke-width:1" />
</svg>
