<svg width="148.9" height="165.4" version="1.2" viewBox="0 0 111.7 124" xmlns="http://www.w3.org/2000/svg"><g fill="#0082c9"><path d="M55.9 116.5a8.4 8.4 0 01-4.2-1.1l-13.4-7.9c-2-1.1-1-1.5-.3-1.7 2.6-1 3.2-1.2 6-2.8.3-.2.7 0 1 0l10.3 6.2c.3.2.9.2 1.2 0l40-23c.3-.3.6-.7.6-1.2V39c0-.5-.3-1-.7-1.2l-39.9-23a1.2 1.2 0 00-1.2 0l-40 23c-.3.3-.6.7-.6 1.1V85c0 .5.2.9.6 1l11 6.4c6 3 9.5-.5 9.5-4V42.9c0-.7.5-1.2 1.2-1.2h5c.7 0 1.2.5 1.2 1.2v45.5c0 7.9-4.3 12.4-11.8 12.4-2.3 0-4.2 0-9.2-2.5l-10.5-6A8.4 8.4 0 017.5 85V39c0-3 1.6-5.9 4.2-7.4l40-23a8.8 8.8 0 018.4 0l40 23a8.4 8.4 0 014.1 7.3V85a8.4 8.4 0 01-4.2 7.3l-40 23a8.4 8.4 0 01-4.1 1.2"/><path d="M68.2 84.8c-17.5 0-21.1-8-21.1-14.8 0-.6.5-1.1 1.1-1.1h5.2c.6 0 1 .4 1.1 1 .8 5.2 3.1 7.8 13.7 7.8 8.4 0 12-1.9 12-6.3 0-2.6-1-4.5-14.1-5.8-11-1-17.7-3.5-17.7-12.2 0-8 6.8-12.9 18.2-12.9 12.8 0 19.1 4.4 20 14a1.2 1.2 0 01-1.2 1.2h-5.2c-.6 0-1-.3-1.2-.9-1.2-5.5-4.2-7.3-12.4-7.3-9.2 0-10.3 3.2-10.3 5.6 0 3 1.3 3.8 13.7 5.4 12.2 1.7 18 4 18 12.6 0 8.7-7.2 13.7-19.8 13.7"/></g></svg>