<svg width="148.95" height="165.36" version="1.2" viewBox="0 0 111.71 124.02" xmlns="http://www.w3.org/2000/svg"><g fill="#689f63"><path d="M55.87 116.52a8.4 8.4 0 01-4.19-1.12l-13.33-7.9c-2-1.1-1.02-1.5-.37-1.73 2.66-.93 3.2-1.14 6.03-2.75.3-.17.7-.1 1 .07l10.24 6.08c.37.2.9.2 1.24 0l39.95-23.06c.37-.2.61-.64.61-1.08v-46.1c0-.46-.24-.87-.62-1.1L56.5 14.8a1.23 1.23 0 00-1.23 0L15.34 37.83c-.38.22-.63.65-.63 1.1v46.1c0 .43.24.85.62 1.06l10.94 6.32c5.94 2.97 9.57-.53 9.57-4.05v-45.5c0-.65.5-1.15 1.16-1.15h5.06c.63 0 1.15.5 1.15 1.15v45.52c0 7.92-4.32 12.47-11.83 12.47-2.31 0-4.13 0-9.21-2.5l-10.48-6.04a8.45 8.45 0 01-4.2-7.29v-46.1c0-3 1.6-5.8 4.2-7.28L51.68 8.57a8.76 8.76 0 018.4 0l39.94 23.08a8.43 8.43 0 014.19 7.28v46.1a8.45 8.45 0 01-4.2 7.28l-39.93 23.07a8.4 8.4 0 01-4.21 1.12"/><path d="M68.21 84.76c-17.48 0-21.14-8.03-21.14-14.76 0-.64.51-1.15 1.16-1.15h5.16c.57 0 1.05.42 1.14.98.78 5.26 3.1 7.91 13.67 7.91 8.42 0 12-1.9 12-6.37 0-2.57-1.02-4.48-14.1-5.76-10.94-1.08-17.7-3.49-17.7-12.24 0-8.06 6.8-12.86 18.19-12.86 12.79 0 19.13 4.44 19.93 13.98a1.16 1.16 0 01-1.16 1.26h-5.2c-.53 0-1-.38-1.11-.9-1.25-5.53-4.27-7.3-12.48-7.3-9.2 0-10.26 3.2-10.26 5.6 0 2.91 1.26 3.76 13.66 5.4 12.28 1.63 18.1 3.93 18.1 12.56 0 8.7-7.25 13.7-19.91 13.7"/></g></svg>