<?xml version="1.0" encoding="UTF-8"?>
<svg xmlns="http://www.w3.org/2000/svg" version="1.1" width="32px" height="32px" viewBox="0 0 32 32">
<g><path fill="#b5b5b5" d="M -0.5,-0.5 C 10.1667,-0.5 20.8333,-0.5 31.5,-0.5C 31.5,10.1667 31.5,20.8333 31.5,31.5C 20.8333,31.5 10.1667,31.5 -0.5,31.5C -0.5,20.8333 -0.5,10.1667 -0.5,-0.5 Z"/></g>
<g><path fill="#ebebeb" d="M 16.5,4.5 C 16.3802,7.20485 17.3802,7.87151 19.5,6.5C 19.8333,7 20.1667,7.5 20.5,8C 19.1439,9.56708 18.4772,11.4004 18.5,13.5C 20.1993,13.4729 21.5326,12.8062 22.5,11.5C 22.5,12.5 22.5,13.5 22.5,14.5C 25.1667,14.5 27.8333,14.5 30.5,14.5C 30.5,17.1667 30.5,19.8333 30.5,22.5C 28.8333,22.5 27.1667,22.5 25.5,22.5C 18.8333,21.1667 12.1667,21.1667 5.5,22.5C 3.83333,21.1667 2.16667,21.1667 0.5,22.5C 0.5,19.8333 0.5,17.1667 0.5,14.5C 2.50613,14.4829 4.50613,14.1496 6.5,13.5C 8.54646,15.2789 10.7131,16.9456 13,18.5C 13.9201,15.6917 13.0867,13.5251 10.5,12C 13.1257,10.6284 13.7924,8.79502 12.5,6.5C 13.1894,5.22641 14.0228,5.22641 15,6.5C 15.2784,5.5842 15.7784,4.91753 16.5,4.5 Z"/></g>
<g><path fill="#373737" d="M 18.5,15.5 C 19.5,15.5 20.5,15.5 21.5,15.5C 21.5,16.5 21.5,17.5 21.5,18.5C 20.5,18.5 19.5,18.5 18.5,18.5C 18.5,17.5 18.5,16.5 18.5,15.5 Z"/></g>
<g><path fill="#3a3a3a" d="M 12.5,6.5 C 13.7924,8.79502 13.1257,10.6284 10.5,12C 13.0867,13.5251 13.9201,15.6917 13,18.5C 10.7131,16.9456 8.54646,15.2789 6.5,13.5C 5.47498,13.1034 5.30831,12.4368 6,11.5C 8.32793,10.0007 10.4946,8.33405 12.5,6.5 Z"/></g>
<g><path fill="#f8f8f8" d="M 30.5,14.5 C 27.8333,14.5 25.1667,14.5 22.5,14.5C 22.5,13.5 22.5,12.5 22.5,11.5C 25.6931,5.01784 23.6931,2.6845 16.5,4.5C 15.7784,4.91753 15.2784,5.5842 15,6.5C 14.0228,5.22641 13.1894,5.22641 12.5,6.5C 10.4946,8.33405 8.32793,10.0007 6,11.5C 5.30831,12.4368 5.47498,13.1034 6.5,13.5C 4.50613,14.1496 2.50613,14.4829 0.5,14.5C 0.200015,9.90142 0.533348,5.40142 1.5,1C 10.8333,0.333333 20.1667,0.333333 29.5,1C 30.4667,5.40142 30.8,9.90142 30.5,14.5 Z"/></g>
<g><path fill="#3c3c3c" d="M 22.5,11.5 C 21.5326,12.8062 20.1993,13.4729 18.5,13.5C 18.4772,11.4004 19.1439,9.56708 20.5,8C 20.1667,7.5 19.8333,7 19.5,6.5C 17.3802,7.87151 16.3802,7.20485 16.5,4.5C 23.6931,2.6845 25.6931,5.01784 22.5,11.5 Z"/></g>
<g><path fill="#e9e9e9" d="M 5.5,22.5 C 5.5,22.8333 5.5,23.1667 5.5,23.5C 5.5,24.8333 5.5,26.1667 5.5,27.5C 12.1667,27.5 18.8333,27.5 25.5,27.5C 25.5,26.1667 25.5,24.8333 25.5,23.5C 25.5,23.1667 25.5,22.8333 25.5,22.5C 27.1667,22.5 28.8333,22.5 30.5,22.5C 30.7683,25.1194 30.435,27.6194 29.5,30C 20.1667,30.6667 10.8333,30.6667 1.5,30C 0.564998,27.6194 0.231664,25.1194 0.5,22.5C 2.16667,21.1667 3.83333,21.1667 5.5,22.5 Z"/></g>
<g><path fill="#fa4c34" d="M 25.5,22.5 C 25.5,22.8333 25.5,23.1667 25.5,23.5C 18.8333,23.5 12.1667,23.5 5.5,23.5C 5.5,23.1667 5.5,22.8333 5.5,22.5C 12.1667,21.1667 18.8333,21.1667 25.5,22.5 Z"/></g>
<g><path  fill="#f29c90" d="M 5.5,23.5 C 12.1667,23.5 18.8333,23.5 25.5,23.5C 25.5,24.8333 25.5,26.1667 25.5,27.5C 18.8333,27.5 12.1667,27.5 5.5,27.5C 5.5,26.1667 5.5,24.8333 5.5,23.5 Z"/></g>
</svg>
